<svg xmlns="http://www.w3.org/2000/svg" viewBox="0 0 512 512">
  <defs>
    <linearGradient id="bg" x1="0%" y1="0%" x2="100%" y2="100%">
      <stop offset="0%" stop-color="#064e3b"/>
      <stop offset="100%" stop-color="#0a0a0f"/>
    </linearGradient>
    <linearGradient id="glow" x1="0%" y1="0%" x2="100%" y2="100%">
      <stop offset="0%" stop-color="#10b981"/>
      <stop offset="100%" stop-color="#6ee7b7"/>
    </linearGradient>
  </defs>
  <!-- Background -->
  <rect width="512" height="512" rx="108" fill="url(#bg)"/>
  <!-- Receipt shape with zigzag bottom -->
  <path d="M148 76h216c13.3 0 24 10.7 24 24v312l-28-20-28 20-28-20-28 20-28-20-28 20-28-20-28 20-28-20-28 20V100c0-13.3 10.7-24 24-24z" fill="rgba(255,255,255,0.1)" stroke="rgba(255,255,255,0.15)" stroke-width="2"/>
  <!-- Receipt lines -->
  <rect x="184" y="132" width="144" height="12" rx="6" fill="url(#glow)" opacity="0.9"/>
  <rect x="184" y="172" width="112" height="10" rx="5" fill="rgba(255,255,255,0.2)"/>
  <rect x="312" y="172" width="40" height="10" rx="5" fill="rgba(255,255,255,0.2)"/>
  <rect x="184" y="204" width="128" height="10" rx="5" fill="rgba(255,255,255,0.2)"/>
  <rect x="320" y="204" width="32" height="10" rx="5" fill="rgba(255,255,255,0.2)"/>
  <rect x="184" y="236" width="96" height="10" rx="5" fill="rgba(255,255,255,0.2)"/>
  <rect x="296" y="236" width="56" height="10" rx="5" fill="rgba(255,255,255,0.2)"/>
  <rect x="184" y="268" width="136" height="10" rx="5" fill="rgba(255,255,255,0.2)"/>
  <rect x="184" y="308" width="168" height="12" rx="6" fill="url(#glow)" opacity="0.6"/>
  <!-- AI sparkle (4-point star) -->
  <path d="M408 100 l10 22 22 10 -22 10 -10 22 -10-22 -22-10 22-10z" fill="url(#glow)"/>
  <path d="M96 360 l7 15 15 7 -15 7 -7 15 -7-15 -15-7 15-7z" fill="url(#glow)" opacity="0.5"/>
  <path d="M420 300 l5 11 11 5 -11 5 -5 11 -5-11 -11-5 11-5z" fill="url(#glow)" opacity="0.4"/>
</svg>
